<mxfile host="app.diagrams.net" modified="2023-08-11T14:42:33.744Z" agent="Mozilla/5.0 (Macintosh; Intel Mac OS X 10_15_7) AppleWebKit/537.36 (KHTML, like Gecko) Chrome/115.0.0.0 Safari/537.36" etag="RGbNpIYDGRoKo14AK9r_" version="21.6.7" type="device" pages="3">
  <diagram name="Page-1" id="gs21HlJtkFtCXcvdO7zd">
    <mxGraphModel dx="636" dy="373" grid="1" gridSize="10" guides="1" tooltips="1" connect="1" arrows="1" fold="1" page="1" pageScale="1" pageWidth="827" pageHeight="1169" math="0" shadow="0">
      <root>
        <mxCell id="0" />
        <mxCell id="1" parent="0" />
        <mxCell id="w5uHPdLFZ34kC-FUMDwV-9" value="" style="ellipse;whiteSpace=wrap;html=1;aspect=fixed;fillColor=none;dashed=1;strokeColor=#FF0080;" parent="1" vertex="1">
          <mxGeometry x="360" y="120" width="160" height="160" as="geometry" />
        </mxCell>
        <mxCell id="w5uHPdLFZ34kC-FUMDwV-14" value="1" style="text;html=1;strokeColor=none;fillColor=none;align=center;verticalAlign=middle;whiteSpace=wrap;rounded=0;fontFamily=Courier New;" parent="1" vertex="1">
          <mxGeometry x="520" y="200.54" width="12" height="15" as="geometry" />
        </mxCell>
        <mxCell id="w5uHPdLFZ34kC-FUMDwV-15" value="-1" style="text;html=1;strokeColor=none;fillColor=none;align=center;verticalAlign=middle;whiteSpace=wrap;rounded=0;fontFamily=Courier New;" parent="1" vertex="1">
          <mxGeometry x="346" y="200.54" width="12" height="15" as="geometry" />
        </mxCell>
        <mxCell id="w5uHPdLFZ34kC-FUMDwV-32" value="" style="endArrow=classic;startArrow=classic;html=1;rounded=0;" parent="1" edge="1">
          <mxGeometry width="50" height="50" relative="1" as="geometry">
            <mxPoint x="320" y="200" as="sourcePoint" />
            <mxPoint x="560" y="200" as="targetPoint" />
          </mxGeometry>
        </mxCell>
        <mxCell id="w5uHPdLFZ34kC-FUMDwV-30" value="" style="ellipse;whiteSpace=wrap;html=1;aspect=fixed;movable=1;resizable=1;rotatable=1;deletable=1;editable=1;locked=0;connectable=1;fillColor=#3333FF;strokeColor=#3333FF;" parent="1" vertex="1">
          <mxGeometry x="518" y="198.1" width="4" height="4" as="geometry" />
        </mxCell>
        <mxCell id="w5uHPdLFZ34kC-FUMDwV-25" value="" style="ellipse;whiteSpace=wrap;html=1;aspect=fixed;movable=1;resizable=1;rotatable=1;deletable=1;editable=1;locked=0;connectable=1;fillColor=#3333FF;strokeColor=#3333FF;" parent="1" vertex="1">
          <mxGeometry x="358" y="198.1" width="4" height="4" as="geometry" />
        </mxCell>
        <mxCell id="w5uHPdLFZ34kC-FUMDwV-34" value="" style="endArrow=classic;startArrow=classic;html=1;rounded=0;" parent="1" edge="1">
          <mxGeometry width="50" height="50" relative="1" as="geometry">
            <mxPoint x="440" y="80" as="sourcePoint" />
            <mxPoint x="440" y="321.1111111111111" as="targetPoint" />
          </mxGeometry>
        </mxCell>
        <mxCell id="w5uHPdLFZ34kC-FUMDwV-42" value="&lt;font face=&quot;Courier New&quot;&gt;ω&lt;sup&gt;0&lt;/sup&gt;&lt;/font&gt;" style="text;html=1;strokeColor=none;fillColor=none;align=center;verticalAlign=middle;whiteSpace=wrap;rounded=0;" parent="1" vertex="1">
          <mxGeometry x="520" y="179.98000000000002" width="18" height="20" as="geometry" />
        </mxCell>
        <mxCell id="w5uHPdLFZ34kC-FUMDwV-43" value="&lt;font face=&quot;Courier New&quot;&gt;ω&lt;sup&gt;1&lt;/sup&gt;&lt;/font&gt;" style="text;html=1;strokeColor=none;fillColor=none;align=center;verticalAlign=middle;whiteSpace=wrap;rounded=0;" parent="1" vertex="1">
          <mxGeometry x="342" y="179.98000000000002" width="18" height="20" as="geometry" />
        </mxCell>
      </root>
    </mxGraphModel>
  </diagram>
  <diagram id="f7FILBLAPacnIdS8mDK5" name="Page-2">
    <mxGraphModel dx="374" dy="220" grid="1" gridSize="10" guides="1" tooltips="1" connect="1" arrows="1" fold="1" page="1" pageScale="1" pageWidth="827" pageHeight="1169" math="0" shadow="0">
      <root>
        <mxCell id="0" />
        <mxCell id="1" parent="0" />
        <mxCell id="4Zfi7yuIgHUVE2cdbytF-1" value="" style="ellipse;whiteSpace=wrap;html=1;aspect=fixed;fillColor=none;dashed=1;strokeColor=#FF0080;" vertex="1" parent="1">
          <mxGeometry x="290" y="140" width="160" height="160" as="geometry" />
        </mxCell>
        <mxCell id="4Zfi7yuIgHUVE2cdbytF-2" value="1" style="text;html=1;strokeColor=none;fillColor=none;align=center;verticalAlign=middle;whiteSpace=wrap;rounded=0;fontFamily=Courier New;" vertex="1" parent="1">
          <mxGeometry x="450" y="220.54" width="12" height="15" as="geometry" />
        </mxCell>
        <mxCell id="4Zfi7yuIgHUVE2cdbytF-3" value="-1" style="text;html=1;strokeColor=none;fillColor=none;align=center;verticalAlign=middle;whiteSpace=wrap;rounded=0;fontFamily=Courier New;" vertex="1" parent="1">
          <mxGeometry x="276" y="220.54" width="12" height="15" as="geometry" />
        </mxCell>
        <mxCell id="4Zfi7yuIgHUVE2cdbytF-4" value="" style="endArrow=classic;startArrow=classic;html=1;rounded=0;" edge="1" parent="1">
          <mxGeometry width="50" height="50" relative="1" as="geometry">
            <mxPoint x="250" y="220" as="sourcePoint" />
            <mxPoint x="490" y="220" as="targetPoint" />
          </mxGeometry>
        </mxCell>
        <mxCell id="4Zfi7yuIgHUVE2cdbytF-5" value="" style="ellipse;whiteSpace=wrap;html=1;aspect=fixed;movable=1;resizable=1;rotatable=1;deletable=1;editable=1;locked=0;connectable=1;fillColor=#3333FF;strokeColor=#3333FF;" vertex="1" parent="1">
          <mxGeometry x="448" y="218.1" width="4" height="4" as="geometry" />
        </mxCell>
        <mxCell id="4Zfi7yuIgHUVE2cdbytF-6" value="" style="ellipse;whiteSpace=wrap;html=1;aspect=fixed;movable=1;resizable=1;rotatable=1;deletable=1;editable=1;locked=0;connectable=1;fillColor=#3333FF;strokeColor=#3333FF;" vertex="1" parent="1">
          <mxGeometry x="288" y="218.1" width="4" height="4" as="geometry" />
        </mxCell>
        <mxCell id="4Zfi7yuIgHUVE2cdbytF-7" value="" style="endArrow=classic;startArrow=classic;html=1;rounded=0;" edge="1" parent="1">
          <mxGeometry width="50" height="50" relative="1" as="geometry">
            <mxPoint x="370" y="100" as="sourcePoint" />
            <mxPoint x="370" y="341.1111111111111" as="targetPoint" />
          </mxGeometry>
        </mxCell>
        <mxCell id="4Zfi7yuIgHUVE2cdbytF-8" value="&lt;font face=&quot;Courier New&quot;&gt;ω&lt;sup&gt;0&lt;/sup&gt;&lt;/font&gt;" style="text;html=1;strokeColor=none;fillColor=none;align=center;verticalAlign=middle;whiteSpace=wrap;rounded=0;" vertex="1" parent="1">
          <mxGeometry x="452" y="198.66000000000003" width="18" height="20" as="geometry" />
        </mxCell>
        <mxCell id="4Zfi7yuIgHUVE2cdbytF-9" value="&lt;font face=&quot;Courier New&quot;&gt;ω&lt;sup&gt;2&lt;/sup&gt;&lt;/font&gt;" style="text;html=1;strokeColor=none;fillColor=none;align=center;verticalAlign=middle;whiteSpace=wrap;rounded=0;" vertex="1" parent="1">
          <mxGeometry x="270" y="200.54000000000002" width="18" height="20" as="geometry" />
        </mxCell>
        <mxCell id="4Zfi7yuIgHUVE2cdbytF-10" value="√-1" style="text;html=1;strokeColor=none;fillColor=none;align=center;verticalAlign=middle;whiteSpace=wrap;rounded=0;fontFamily=Courier New;" vertex="1" parent="1">
          <mxGeometry x="373" y="120" width="23" height="20" as="geometry" />
        </mxCell>
        <mxCell id="4Zfi7yuIgHUVE2cdbytF-11" value="&lt;font face=&quot;Courier New&quot;&gt;ω&lt;sup&gt;1&lt;/sup&gt;&lt;/font&gt;" style="text;html=1;strokeColor=none;fillColor=none;align=center;verticalAlign=middle;whiteSpace=wrap;rounded=0;" vertex="1" parent="1">
          <mxGeometry x="353" y="120.00000000000001" width="18" height="20" as="geometry" />
        </mxCell>
        <mxCell id="4Zfi7yuIgHUVE2cdbytF-12" value="-√-1" style="text;html=1;strokeColor=none;fillColor=none;align=center;verticalAlign=middle;whiteSpace=wrap;rounded=0;fontFamily=Courier New;" vertex="1" parent="1">
          <mxGeometry x="368.5" y="300" width="34.5" height="20" as="geometry" />
        </mxCell>
        <mxCell id="4Zfi7yuIgHUVE2cdbytF-13" value="&lt;font face=&quot;Courier New&quot;&gt;ω&lt;sup&gt;3&lt;/sup&gt;&lt;/font&gt;" style="text;html=1;strokeColor=none;fillColor=none;align=center;verticalAlign=middle;whiteSpace=wrap;rounded=0;" vertex="1" parent="1">
          <mxGeometry x="348.5" y="300" width="18" height="20" as="geometry" />
        </mxCell>
        <mxCell id="4Zfi7yuIgHUVE2cdbytF-14" value="" style="ellipse;whiteSpace=wrap;html=1;aspect=fixed;movable=1;resizable=1;rotatable=1;deletable=1;editable=1;locked=0;connectable=1;fillColor=#3333FF;strokeColor=#3333FF;" vertex="1" parent="1">
          <mxGeometry x="368" y="138" width="4" height="4" as="geometry" />
        </mxCell>
        <mxCell id="4Zfi7yuIgHUVE2cdbytF-15" value="" style="ellipse;whiteSpace=wrap;html=1;aspect=fixed;movable=1;resizable=1;rotatable=1;deletable=1;editable=1;locked=0;connectable=1;fillColor=#3333FF;strokeColor=#3333FF;" vertex="1" parent="1">
          <mxGeometry x="368" y="298" width="4" height="4" as="geometry" />
        </mxCell>
        <mxCell id="pEhc-PMFzkIIAESa4-JI-1" value="" style="endArrow=none;dashed=1;html=1;dashPattern=1 3;strokeWidth=1;rounded=0;entryX=0;entryY=0.5;entryDx=0;entryDy=0;exitX=0.5;exitY=1;exitDx=0;exitDy=0;fillColor=#dae8fc;strokeColor=#3333FF;" edge="1" parent="1" source="4Zfi7yuIgHUVE2cdbytF-1">
          <mxGeometry width="50" height="50" relative="1" as="geometry">
            <mxPoint x="370" y="250" as="sourcePoint" />
            <mxPoint x="291.99999999999994" y="222.1" as="targetPoint" />
          </mxGeometry>
        </mxCell>
        <mxCell id="pEhc-PMFzkIIAESa4-JI-2" value="" style="endArrow=none;dashed=1;html=1;dashPattern=1 3;strokeWidth=1;rounded=0;entryX=0;entryY=1;entryDx=0;entryDy=0;fillColor=#dae8fc;strokeColor=#3333FF;exitX=0.5;exitY=1;exitDx=0;exitDy=0;" edge="1" parent="1" source="4Zfi7yuIgHUVE2cdbytF-1" target="4Zfi7yuIgHUVE2cdbytF-5">
          <mxGeometry width="50" height="50" relative="1" as="geometry">
            <mxPoint x="430" y="310" as="sourcePoint" />
            <mxPoint x="447.99999999999994" y="218.1" as="targetPoint" />
          </mxGeometry>
        </mxCell>
        <mxCell id="pEhc-PMFzkIIAESa4-JI-3" value="" style="endArrow=none;dashed=1;html=1;dashPattern=1 3;strokeWidth=1;rounded=0;entryX=1;entryY=0.5;entryDx=0;entryDy=0;fillColor=#dae8fc;strokeColor=#3333FF;exitX=0.5;exitY=0;exitDx=0;exitDy=0;" edge="1" parent="1" source="4Zfi7yuIgHUVE2cdbytF-1" target="4Zfi7yuIgHUVE2cdbytF-1">
          <mxGeometry width="50" height="50" relative="1" as="geometry">
            <mxPoint x="410" y="130" as="sourcePoint" />
            <mxPoint x="445.5" y="210" as="targetPoint" />
          </mxGeometry>
        </mxCell>
        <mxCell id="pEhc-PMFzkIIAESa4-JI-4" value="" style="endArrow=none;dashed=1;html=1;dashPattern=1 3;strokeWidth=1;rounded=0;entryX=0;entryY=0.5;entryDx=0;entryDy=0;fillColor=#dae8fc;strokeColor=#3333FF;exitX=0;exitY=1;exitDx=0;exitDy=0;" edge="1" parent="1" source="4Zfi7yuIgHUVE2cdbytF-14" target="4Zfi7yuIgHUVE2cdbytF-1">
          <mxGeometry width="50" height="50" relative="1" as="geometry">
            <mxPoint x="317.5" y="138" as="sourcePoint" />
            <mxPoint x="397.5" y="218" as="targetPoint" />
          </mxGeometry>
        </mxCell>
      </root>
    </mxGraphModel>
  </diagram>
  <diagram id="njZXBQG6Ys1q0OfwifwE" name="Page-3">
    <mxGraphModel dx="434" dy="255" grid="1" gridSize="10" guides="1" tooltips="1" connect="1" arrows="1" fold="1" page="1" pageScale="1" pageWidth="827" pageHeight="1169" math="0" shadow="0">
      <root>
        <mxCell id="0" />
        <mxCell id="1" parent="0" />
        <mxCell id="747KiQr0ssr21--OJdS1-1" value="" style="ellipse;whiteSpace=wrap;html=1;aspect=fixed;fillColor=none;dashed=1;strokeColor=#FF0080;" vertex="1" parent="1">
          <mxGeometry x="290" y="138" width="160" height="160" as="geometry" />
        </mxCell>
        <mxCell id="747KiQr0ssr21--OJdS1-2" value="1" style="text;html=1;strokeColor=none;fillColor=none;align=center;verticalAlign=middle;whiteSpace=wrap;rounded=0;fontFamily=Courier New;" vertex="1" parent="1">
          <mxGeometry x="450" y="220.54" width="12" height="15" as="geometry" />
        </mxCell>
        <mxCell id="747KiQr0ssr21--OJdS1-3" value="-1" style="text;html=1;strokeColor=none;fillColor=none;align=center;verticalAlign=middle;whiteSpace=wrap;rounded=0;fontFamily=Courier New;" vertex="1" parent="1">
          <mxGeometry x="276" y="220.54" width="12" height="15" as="geometry" />
        </mxCell>
        <mxCell id="747KiQr0ssr21--OJdS1-4" value="" style="endArrow=classic;startArrow=classic;html=1;rounded=0;" edge="1" parent="1">
          <mxGeometry width="50" height="50" relative="1" as="geometry">
            <mxPoint x="250" y="220" as="sourcePoint" />
            <mxPoint x="490" y="220" as="targetPoint" />
          </mxGeometry>
        </mxCell>
        <mxCell id="747KiQr0ssr21--OJdS1-5" value="" style="ellipse;whiteSpace=wrap;html=1;aspect=fixed;movable=1;resizable=1;rotatable=1;deletable=1;editable=1;locked=0;connectable=1;fillColor=#3333FF;strokeColor=#3333FF;" vertex="1" parent="1">
          <mxGeometry x="448" y="218.1" width="4" height="4" as="geometry" />
        </mxCell>
        <mxCell id="747KiQr0ssr21--OJdS1-6" value="" style="ellipse;whiteSpace=wrap;html=1;aspect=fixed;movable=1;resizable=1;rotatable=1;deletable=1;editable=1;locked=0;connectable=1;fillColor=#3333FF;strokeColor=#3333FF;" vertex="1" parent="1">
          <mxGeometry x="288" y="218.1" width="4" height="4" as="geometry" />
        </mxCell>
        <mxCell id="747KiQr0ssr21--OJdS1-7" value="" style="endArrow=classic;startArrow=classic;html=1;rounded=0;" edge="1" parent="1">
          <mxGeometry width="50" height="50" relative="1" as="geometry">
            <mxPoint x="370" y="100" as="sourcePoint" />
            <mxPoint x="370" y="341.1111111111111" as="targetPoint" />
          </mxGeometry>
        </mxCell>
        <mxCell id="747KiQr0ssr21--OJdS1-8" value="&lt;font face=&quot;Courier New&quot;&gt;ω&lt;sup&gt;0&lt;/sup&gt;&lt;/font&gt;" style="text;html=1;strokeColor=none;fillColor=none;align=center;verticalAlign=middle;whiteSpace=wrap;rounded=0;" vertex="1" parent="1">
          <mxGeometry x="452" y="198.66000000000003" width="18" height="20" as="geometry" />
        </mxCell>
        <mxCell id="747KiQr0ssr21--OJdS1-9" value="&lt;font face=&quot;Courier New&quot;&gt;ω&lt;sup&gt;4&lt;/sup&gt;&lt;/font&gt;" style="text;html=1;strokeColor=none;fillColor=none;align=center;verticalAlign=middle;whiteSpace=wrap;rounded=0;" vertex="1" parent="1">
          <mxGeometry x="270" y="200.54000000000002" width="18" height="20" as="geometry" />
        </mxCell>
        <mxCell id="747KiQr0ssr21--OJdS1-10" value="√-1" style="text;html=1;strokeColor=none;fillColor=none;align=center;verticalAlign=middle;whiteSpace=wrap;rounded=0;fontFamily=Courier New;" vertex="1" parent="1">
          <mxGeometry x="373" y="120" width="23" height="20" as="geometry" />
        </mxCell>
        <mxCell id="747KiQr0ssr21--OJdS1-11" value="&lt;font face=&quot;Courier New&quot;&gt;ω&lt;sup&gt;2&lt;/sup&gt;&lt;/font&gt;" style="text;html=1;strokeColor=none;fillColor=none;align=center;verticalAlign=middle;whiteSpace=wrap;rounded=0;" vertex="1" parent="1">
          <mxGeometry x="353" y="120.00000000000001" width="18" height="20" as="geometry" />
        </mxCell>
        <mxCell id="747KiQr0ssr21--OJdS1-12" value="-√-1" style="text;html=1;strokeColor=none;fillColor=none;align=center;verticalAlign=middle;whiteSpace=wrap;rounded=0;fontFamily=Courier New;" vertex="1" parent="1">
          <mxGeometry x="368.5" y="300" width="34.5" height="20" as="geometry" />
        </mxCell>
        <mxCell id="747KiQr0ssr21--OJdS1-13" value="&lt;font face=&quot;Courier New&quot;&gt;ω&lt;sup&gt;6&lt;/sup&gt;&lt;/font&gt;" style="text;html=1;strokeColor=none;fillColor=none;align=center;verticalAlign=middle;whiteSpace=wrap;rounded=0;" vertex="1" parent="1">
          <mxGeometry x="348.5" y="300" width="18" height="20" as="geometry" />
        </mxCell>
        <mxCell id="747KiQr0ssr21--OJdS1-14" value="" style="ellipse;whiteSpace=wrap;html=1;aspect=fixed;movable=1;resizable=1;rotatable=1;deletable=1;editable=1;locked=0;connectable=1;fillColor=#3333FF;strokeColor=#3333FF;" vertex="1" parent="1">
          <mxGeometry x="368" y="138" width="4" height="4" as="geometry" />
        </mxCell>
        <mxCell id="747KiQr0ssr21--OJdS1-15" value="" style="ellipse;whiteSpace=wrap;html=1;aspect=fixed;movable=1;resizable=1;rotatable=1;deletable=1;editable=1;locked=0;connectable=1;fillColor=#3333FF;strokeColor=#3333FF;" vertex="1" parent="1">
          <mxGeometry x="368" y="296" width="4" height="4" as="geometry" />
        </mxCell>
        <mxCell id="747KiQr0ssr21--OJdS1-16" value="" style="ellipse;whiteSpace=wrap;html=1;aspect=fixed;movable=1;resizable=1;rotatable=1;deletable=1;editable=1;locked=0;connectable=1;fillColor=#3333FF;strokeColor=#3333FF;" vertex="1" parent="1">
          <mxGeometry x="426" y="160" width="4" height="4" as="geometry" />
        </mxCell>
        <mxCell id="747KiQr0ssr21--OJdS1-17" value="&lt;font face=&quot;Courier New&quot;&gt;ω&lt;sup&gt;1&lt;/sup&gt;&lt;/font&gt;" style="text;html=1;strokeColor=none;fillColor=none;align=center;verticalAlign=middle;whiteSpace=wrap;rounded=0;" vertex="1" parent="1">
          <mxGeometry x="428" y="145.00000000000003" width="18" height="20" as="geometry" />
        </mxCell>
        <mxCell id="747KiQr0ssr21--OJdS1-18" value="" style="ellipse;whiteSpace=wrap;html=1;aspect=fixed;movable=1;resizable=1;rotatable=1;deletable=1;editable=1;locked=0;connectable=1;fillColor=#3333FF;strokeColor=#3333FF;" vertex="1" parent="1">
          <mxGeometry x="313" y="273" width="4" height="4" as="geometry" />
        </mxCell>
        <mxCell id="cR3c1jEwB6zk520SuXbF-1" value="" style="endArrow=none;dashed=1;html=1;dashPattern=1 3;strokeWidth=1;rounded=0;entryX=0;entryY=0.5;entryDx=0;entryDy=0;fillColor=#dae8fc;strokeColor=#3333FF;exitX=0.5;exitY=0;exitDx=0;exitDy=0;" edge="1" parent="1" source="747KiQr0ssr21--OJdS1-18">
          <mxGeometry width="50" height="50" relative="1" as="geometry">
            <mxPoint x="280" y="280" as="sourcePoint" />
            <mxPoint x="291.99999999999994" y="222.1" as="targetPoint" />
          </mxGeometry>
        </mxCell>
        <mxCell id="cR3c1jEwB6zk520SuXbF-2" value="" style="endArrow=none;dashed=1;html=1;dashPattern=1 3;strokeWidth=1;rounded=0;fillColor=#dae8fc;strokeColor=#3333FF;exitX=0.5;exitY=1;exitDx=0;exitDy=0;entryX=1;entryY=1;entryDx=0;entryDy=0;" edge="1" parent="1" target="747KiQr0ssr21--OJdS1-1">
          <mxGeometry width="50" height="50" relative="1" as="geometry">
            <mxPoint x="370" y="300" as="sourcePoint" />
            <mxPoint x="420" y="300" as="targetPoint" />
          </mxGeometry>
        </mxCell>
        <mxCell id="cR3c1jEwB6zk520SuXbF-3" value="" style="endArrow=none;dashed=1;html=1;dashPattern=1 3;strokeWidth=1;rounded=0;fillColor=#dae8fc;strokeColor=#3333FF;exitX=1;exitY=0.5;exitDx=0;exitDy=0;entryX=0;entryY=0.5;entryDx=0;entryDy=0;" edge="1" parent="1" source="747KiQr0ssr21--OJdS1-14" target="747KiQr0ssr21--OJdS1-16">
          <mxGeometry width="50" height="50" relative="1" as="geometry">
            <mxPoint x="366.5" y="160" as="sourcePoint" />
            <mxPoint x="421.4999999999976" y="182" as="targetPoint" />
          </mxGeometry>
        </mxCell>
        <mxCell id="cR3c1jEwB6zk520SuXbF-4" value="" style="endArrow=none;dashed=1;html=1;dashPattern=1 3;strokeWidth=1;rounded=0;entryX=0;entryY=0.5;entryDx=0;entryDy=0;fillColor=#dae8fc;strokeColor=#3333FF;exitX=0;exitY=0;exitDx=0;exitDy=0;" edge="1" parent="1" source="747KiQr0ssr21--OJdS1-1">
          <mxGeometry width="50" height="50" relative="1" as="geometry">
            <mxPoint x="369" y="141" as="sourcePoint" />
            <mxPoint x="290" y="220" as="targetPoint" />
          </mxGeometry>
        </mxCell>
        <mxCell id="cR3c1jEwB6zk520SuXbF-5" value="&lt;font face=&quot;Courier New&quot;&gt;ω&lt;sup&gt;5&lt;/sup&gt;&lt;/font&gt;" style="text;html=1;strokeColor=none;fillColor=none;align=center;verticalAlign=middle;whiteSpace=wrap;rounded=0;" vertex="1" parent="1">
          <mxGeometry x="292" y="271" width="18" height="20" as="geometry" />
        </mxCell>
        <mxCell id="cR3c1jEwB6zk520SuXbF-6" value="" style="endArrow=none;dashed=1;html=1;dashPattern=1 3;strokeWidth=1;rounded=0;entryX=1;entryY=0.5;entryDx=0;entryDy=0;fillColor=#dae8fc;strokeColor=#3333FF;exitX=0;exitY=0.5;exitDx=0;exitDy=0;" edge="1" parent="1" source="747KiQr0ssr21--OJdS1-15" target="747KiQr0ssr21--OJdS1-18">
          <mxGeometry width="50" height="50" relative="1" as="geometry">
            <mxPoint x="320" y="321.5" as="sourcePoint" />
            <mxPoint x="301.99999999999994" y="232.1" as="targetPoint" />
          </mxGeometry>
        </mxCell>
        <mxCell id="cR3c1jEwB6zk520SuXbF-7" value="" style="endArrow=none;dashed=1;html=1;dashPattern=1 3;strokeWidth=1;rounded=0;fillColor=#dae8fc;strokeColor=#3333FF;entryX=0.448;entryY=0.488;entryDx=0;entryDy=0;entryPerimeter=0;exitX=0.5;exitY=1;exitDx=0;exitDy=0;" edge="1" parent="1" source="747KiQr0ssr21--OJdS1-16" target="747KiQr0ssr21--OJdS1-5">
          <mxGeometry width="50" height="50" relative="1" as="geometry">
            <mxPoint x="410" y="178" as="sourcePoint" />
            <mxPoint x="434" y="173" as="targetPoint" />
          </mxGeometry>
        </mxCell>
        <mxCell id="cR3c1jEwB6zk520SuXbF-10" value="" style="ellipse;whiteSpace=wrap;html=1;aspect=fixed;movable=1;resizable=1;rotatable=1;deletable=1;editable=1;locked=0;connectable=1;fillColor=#3333FF;strokeColor=#3333FF;" vertex="1" parent="1">
          <mxGeometry x="310" y="160.2" width="4" height="4" as="geometry" />
        </mxCell>
        <mxCell id="cR3c1jEwB6zk520SuXbF-11" value="" style="ellipse;whiteSpace=wrap;html=1;aspect=fixed;movable=1;resizable=1;rotatable=1;deletable=1;editable=1;locked=0;connectable=1;fillColor=#3333FF;strokeColor=#3333FF;" vertex="1" parent="1">
          <mxGeometry x="424" y="273" width="4" height="4" as="geometry" />
        </mxCell>
        <mxCell id="cR3c1jEwB6zk520SuXbF-13" value="" style="endArrow=none;dashed=1;html=1;dashPattern=1 3;strokeWidth=1;rounded=0;fillColor=#dae8fc;strokeColor=#3333FF;exitX=1;exitY=1;exitDx=0;exitDy=0;entryX=1;entryY=1;entryDx=0;entryDy=0;" edge="1" parent="1" source="747KiQr0ssr21--OJdS1-1">
          <mxGeometry width="50" height="50" relative="1" as="geometry">
            <mxPoint x="393" y="245.54000000000002" as="sourcePoint" />
            <mxPoint x="450" y="220.54000000000002" as="targetPoint" />
          </mxGeometry>
        </mxCell>
        <mxCell id="cR3c1jEwB6zk520SuXbF-14" value="" style="endArrow=none;dashed=1;html=1;dashPattern=1 3;strokeWidth=1;rounded=0;entryX=0;entryY=0;entryDx=0;entryDy=0;fillColor=#dae8fc;strokeColor=#3333FF;exitX=0;exitY=0;exitDx=0;exitDy=0;" edge="1" parent="1" target="747KiQr0ssr21--OJdS1-1">
          <mxGeometry width="50" height="50" relative="1" as="geometry">
            <mxPoint x="368" y="140" as="sourcePoint" />
            <mxPoint x="345" y="199" as="targetPoint" />
          </mxGeometry>
        </mxCell>
        <mxCell id="cR3c1jEwB6zk520SuXbF-15" value="&lt;font face=&quot;Courier New&quot;&gt;ω&lt;sup&gt;3&lt;/sup&gt;&lt;/font&gt;" style="text;html=1;strokeColor=none;fillColor=none;align=center;verticalAlign=middle;whiteSpace=wrap;rounded=0;" vertex="1" parent="1">
          <mxGeometry x="295" y="142" width="18" height="20" as="geometry" />
        </mxCell>
        <mxCell id="cR3c1jEwB6zk520SuXbF-16" value="&lt;font face=&quot;Courier New&quot;&gt;ω&lt;sup&gt;7&lt;/sup&gt;&lt;/font&gt;" style="text;html=1;strokeColor=none;fillColor=none;align=center;verticalAlign=middle;whiteSpace=wrap;rounded=0;" vertex="1" parent="1">
          <mxGeometry x="426" y="273" width="18" height="20" as="geometry" />
        </mxCell>
      </root>
    </mxGraphModel>
  </diagram>
</mxfile>
